<?xml version="1.0" encoding="utf-8"?>
<!-- Generator: Adobe Illustrator 15.0.0, SVG Export Plug-In . SVG Version: 6.00 Build 0)  -->
<!DOCTYPE svg PUBLIC "-//W3C//DTD SVG 1.1//EN" "http://www.w3.org/Graphics/SVG/1.1/DTD/svg11.dtd">
<svg version="1.1" id="Layer_1" xmlns="http://www.w3.org/2000/svg" xmlns:xlink="http://www.w3.org/1999/xlink" x="0px" y="0px"
	 width="40px" height="40px" viewBox="0 0 40 40" enable-background="new 0 0 40 40" xml:space="preserve">
<g>
	<path fill="#333333" d="M29.822,5.86c0-0.011,0-0.023,0-0.035c0-0.19-0.152-0.345-0.344-0.345c-0.099,0-0.188,0.043-0.25,0.11
		l-7.93,7.928c-0.488,0.487-0.778,1.008-0.778,1.683l0,0l0,0v8.529l0,0c0.005,0.184,0.157,0.334,0.345,0.334
		c0.098,0,0.185-0.037,0.248-0.102l8.042-8.041c0.41-0.401,0.667-0.962,0.667-1.582C29.822,14.312,29.822,5.86,29.822,5.86z"/>
	<path fill="#333333" d="M10.047,5.86c0-0.011,0-0.023,0-0.035c0-0.19,0.153-0.345,0.344-0.345c0.099,0,0.188,0.043,0.25,0.11
		l7.93,7.928c0.47,0.47,0.778,1.008,0.778,1.683l0,0l0,0v8.529l0,0c-0.004,0.184-0.156,0.334-0.345,0.334
		c-0.097,0-0.184-0.037-0.248-0.102l-8.041-8.041c-0.411-0.401-0.668-0.962-0.668-1.582C10.047,14.312,10.047,5.86,10.047,5.86z"/>
	<path fill="#333333" d="M29.821,17.756c0-0.19-0.151-0.345-0.343-0.345c-0.099,0-0.188,0.043-0.25,0.11l-7.93,7.928
		c-0.448,0.447-0.778,1.01-0.778,1.681l0,0l0,0v8.531l0,0c0.005,0.188,0.157,0.338,0.345,0.338c0.098,0,0.185-0.041,0.248-0.105
		l8.042-8.04c0.41-0.403,0.667-0.964,0.667-1.583C29.822,26.242,29.821,17.769,29.821,17.756z"/>
	<path fill="#333333" d="M10.047,17.792c0-0.011,0-0.022,0-0.035c0-0.19,0.153-0.345,0.344-0.345c0.099,0,0.188,0.043,0.25,0.11
		l7.93,7.928c0.46,0.46,0.778,1.01,0.778,1.681l0,0l0,0v8.531l0,0c-0.004,0.188-0.156,0.338-0.345,0.338
		c-0.097,0-0.184-0.041-0.248-0.105l-8.041-8.04c-0.411-0.403-0.668-0.964-0.668-1.583C10.047,26.242,10.047,17.792,10.047,17.792z"
		/>
	<g>
		<path fill="#333333" d="M19.367,12.548c0.216,0.214,0.409,0.407,0.569,0.643c0.158-0.235,0.351-0.427,0.565-0.643l2.469-2.469
			c-0.709-0.892-1.805-1.465-3.036-1.465c-1.229,0-2.325,0.574-3.035,1.465L19.367,12.548z"/>
	</g>
</g>
</svg>
