<?xml version="1.0" encoding="utf-8"?>
<!-- Generator: Adobe Illustrator 15.0.0, SVG Export Plug-In . SVG Version: 6.00 Build 0)  -->
<!DOCTYPE svg PUBLIC "-//W3C//DTD SVG 1.1//EN" "http://www.w3.org/Graphics/SVG/1.1/DTD/svg11.dtd">
<svg version="1.1" id="Layer_1" xmlns="http://www.w3.org/2000/svg" xmlns:xlink="http://www.w3.org/1999/xlink" x="0px" y="0px"
	 width="750.979px" height="749.978px" viewBox="0 0 750.979 749.978" enable-background="new 0 0 750.979 749.978"
	 xml:space="preserve">
<rect fill="#E4E5E6" width="229.978" height="229.978"/>
<rect x="260" fill="#E4E5E6" width="229.979" height="229.978"/>
<rect x="521" fill="#E4E5E6" width="229.979" height="229.978"/>
<rect y="260" fill="#E4E5E6" width="229.978" height="229.978"/>
<rect x="260" y="260" fill="#E4E5E6" width="229.979" height="229.978"/>
<rect x="521" y="260" fill="#E4E5E6" width="229.979" height="229.978"/>
<rect y="520" fill="#E4E5E6" width="229.978" height="229.978"/>
<rect x="260" y="520" fill="#E4E5E6" width="229.979" height="229.978"/>
<rect x="521" y="520" fill="#E4E5E6" width="229.979" height="229.978"/>
<g>
	<path fill="#A8A8A8" d="M293.166,421.528c0-0.623,0.068-1.228,0.204-1.815c0.136-0.587,0.336-1.139,0.599-1.657
		c0.263-0.517,0.59-0.992,0.982-1.425c0.392-0.433,0.844-0.803,1.354-1.112s1.076-0.549,1.694-0.722s1.289-0.259,2.012-0.259
		c0.886,0,1.677,0.11,2.373,0.33s1.341,0.573,1.934,1.06l-0.635,1c-0.996-0.697-2.158-1.045-3.486-1.045
		c-0.599,0-1.146,0.074-1.641,0.223s-0.939,0.354-1.333,0.618s-0.735,0.574-1.025,0.932s-0.53,0.746-0.723,1.164
		s-0.335,0.859-0.43,1.322c-0.095,0.464-0.142,0.929-0.142,1.396c0,0.715,0.101,1.395,0.303,2.041s0.511,1.212,0.928,1.7
		s0.944,0.876,1.582,1.164s1.394,0.432,2.266,0.432c0.801,0,1.555-0.107,2.261-0.323c0.706-0.215,1.326-0.541,1.86-0.977
		l0.566,1.282c-0.605,0.454-1.321,0.794-2.148,1.021s-1.758,0.341-2.793,0.341c-1.074,0-2.021-0.176-2.842-0.527
		c-0.82-0.351-1.506-0.832-2.058-1.44c-0.552-0.608-0.967-1.317-1.245-2.126S293.166,422.449,293.166,421.528z"/>
	<path fill="#A8A8A8" d="M308.087,421.387c0-0.993,0.158-1.907,0.475-2.743c0.316-0.835,0.775-1.557,1.376-2.166
		c0.602-0.608,1.335-1.083,2.2-1.426c0.866-0.342,1.852-0.513,2.956-0.513c1.047,0,1.991,0.164,2.833,0.491
		c0.841,0.327,1.557,0.79,2.147,1.389c0.591,0.6,1.044,1.322,1.359,2.166c0.314,0.845,0.472,1.788,0.472,2.829
		c0,0.999-0.156,1.915-0.468,2.748s-0.763,1.55-1.354,2.152s-1.313,1.07-2.168,1.403s-1.821,0.5-2.9,0.5s-2.046-0.161-2.902-0.481
		s-1.583-0.778-2.181-1.372c-0.598-0.593-1.055-1.311-1.371-2.152C308.245,423.37,308.087,422.428,308.087,421.387z
		 M309.825,421.423c0,0.763,0.109,1.476,0.327,2.139c0.219,0.663,0.544,1.24,0.978,1.73c0.434,0.49,0.973,0.876,1.618,1.158
		c0.645,0.282,1.395,0.422,2.248,0.422c0.86,0,1.614-0.141,2.263-0.422c0.648-0.281,1.188-0.669,1.618-1.163
		c0.43-0.493,0.752-1.078,0.968-1.752c0.215-0.675,0.322-1.406,0.322-2.193c0-0.769-0.105-1.486-0.317-2.153
		c-0.212-0.666-0.533-1.244-0.963-1.734c-0.431-0.491-0.967-0.875-1.608-1.153c-0.642-0.279-1.393-0.418-2.253-0.418
		c-0.854,0-1.604,0.151-2.248,0.454c-0.646,0.303-1.188,0.708-1.628,1.217c-0.439,0.509-0.771,1.098-0.992,1.767
		S309.825,420.691,309.825,421.423z"/>
	<path fill="#A8A8A8" d="M326.367,428.008v-13.224h2.344l4.635,9.445l0.819,1.853h0.02l0.829-1.88l4.664-9.418h2.256v13.224h-1.611
		v-8.482v-2.879l-0.498,1.099l-5.044,10.263h-1.23l-4.917-10.063l-0.586-1.453v3.061v8.456H326.367z"/>
	<path fill="#A8A8A8" d="M347.215,428.008v-13.224h1.68v13.224H347.215z"/>
	<path fill="#A8A8A8" d="M354.021,428.008v-13.224h2.012l7.295,10.118l0.762,1.153v-2.116v-9.155h1.68v13.224h-2.041l-7.324-10.108
		l-0.703-1.126v1.726v9.509H354.021z"/>
	<path fill="#A8A8A8" d="M370.035,421.641c0-0.647,0.073-1.273,0.22-1.875c0.146-0.602,0.361-1.167,0.645-1.693
		c0.283-0.527,0.633-1.007,1.05-1.439c0.417-0.433,0.894-0.806,1.431-1.117c0.537-0.312,1.133-0.553,1.787-0.722
		s1.365-0.254,2.134-0.254c0.469,0,0.925,0.033,1.367,0.1s0.859,0.167,1.25,0.303c0.391,0.135,0.75,0.307,1.079,0.515
		c0.329,0.208,0.617,0.45,0.864,0.727l-0.674,0.955c-0.241-0.218-0.51-0.406-0.806-0.564s-0.612-0.288-0.947-0.391
		s-0.687-0.179-1.055-0.228s-0.74-0.073-1.118-0.073c-0.905,0-1.701,0.158-2.388,0.473c-0.687,0.315-1.26,0.735-1.719,1.259
		c-0.459,0.524-0.804,1.125-1.035,1.8c-0.231,0.676-0.347,1.377-0.347,2.104c0,0.793,0.114,1.52,0.342,2.177
		c0.228,0.658,0.573,1.221,1.035,1.69c0.462,0.47,1.04,0.835,1.733,1.096c0.693,0.26,1.509,0.391,2.446,0.391
		c0.554,0,1.091-0.042,1.611-0.127s1.016-0.215,1.484-0.392v-3.876H376.9v-1.344h5.205v6.139c-0.788,0.345-1.594,0.589-2.417,0.731
		c-0.823,0.142-1.655,0.213-2.495,0.213c-1.172,0-2.204-0.158-3.096-0.472c-0.892-0.315-1.639-0.76-2.241-1.335
		c-0.603-0.575-1.057-1.267-1.362-2.075C370.188,423.526,370.035,422.628,370.035,421.641z"/>
	<path fill="#A8A8A8" d="M393.432,426.545l0.742-1c0.213,0.242,0.464,0.447,0.752,0.614c0.287,0.167,0.591,0.303,0.911,0.409
		c0.32,0.106,0.65,0.184,0.989,0.232c0.34,0.049,0.671,0.073,0.994,0.073c0.516,0,0.988-0.047,1.419-0.141
		c0.43-0.094,0.8-0.233,1.109-0.418c0.311-0.185,0.552-0.412,0.725-0.682c0.172-0.27,0.259-0.583,0.259-0.941
		c0-0.4-0.114-0.741-0.343-1.022c-0.228-0.282-0.526-0.532-0.895-0.75c-0.368-0.218-0.791-0.415-1.267-0.591l-1.447-0.527
		c-0.489-0.182-0.97-0.377-1.441-0.586s-0.889-0.458-1.251-0.745c-0.363-0.288-0.656-0.627-0.881-1.018
		c-0.225-0.391-0.337-0.856-0.337-1.396c0-0.58,0.146-1.089,0.436-1.527c0.291-0.438,0.675-0.804,1.152-1.097
		c0.478-0.293,1.02-0.515,1.627-0.667c0.606-0.151,1.229-0.227,1.868-0.227c0.368,0,0.745,0.021,1.133,0.063
		c0.387,0.042,0.759,0.117,1.117,0.226c0.358,0.108,0.69,0.251,0.997,0.428c0.306,0.178,0.562,0.402,0.769,0.672l-0.784,1.018
		c-0.194-0.2-0.417-0.368-0.666-0.504c-0.25-0.136-0.517-0.246-0.799-0.327c-0.282-0.082-0.572-0.141-0.871-0.177
		c-0.298-0.037-0.594-0.055-0.886-0.055c-0.397,0-0.795,0.038-1.193,0.114c-0.397,0.076-0.756,0.197-1.075,0.363
		c-0.319,0.167-0.581,0.382-0.783,0.646s-0.303,0.583-0.303,0.959c0,0.388,0.114,0.723,0.342,1.004
		c0.229,0.282,0.528,0.532,0.9,0.75s0.792,0.418,1.262,0.6l1.457,0.555c0.496,0.188,0.976,0.391,1.439,0.609
		s0.878,0.476,1.242,0.772c0.365,0.297,0.659,0.644,0.883,1.041s0.336,0.865,0.336,1.404c0,0.43-0.074,0.816-0.223,1.158
		s-0.352,0.644-0.609,0.904c-0.258,0.261-0.561,0.483-0.909,0.668c-0.348,0.185-0.724,0.335-1.127,0.45
		c-0.402,0.115-0.823,0.2-1.262,0.254c-0.438,0.055-0.874,0.082-1.306,0.082c-0.471,0-0.918-0.04-1.343-0.118
		c-0.426-0.079-0.818-0.191-1.179-0.336c-0.361-0.146-0.685-0.321-0.972-0.527C393.855,427.03,393.618,426.8,393.432,426.545z"/>
	<path fill="#A8A8A8" d="M406.555,421.387c0-0.993,0.158-1.907,0.475-2.743c0.316-0.835,0.775-1.557,1.376-2.166
		c0.602-0.608,1.335-1.083,2.2-1.426c0.866-0.342,1.852-0.513,2.956-0.513c1.047,0,1.991,0.164,2.833,0.491
		c0.841,0.327,1.557,0.79,2.147,1.389c0.591,0.6,1.044,1.322,1.359,2.166c0.314,0.845,0.472,1.788,0.472,2.829
		c0,0.999-0.156,1.915-0.468,2.748s-0.763,1.55-1.354,2.152s-1.313,1.07-2.168,1.403s-1.821,0.5-2.9,0.5s-2.046-0.161-2.902-0.481
		s-1.583-0.778-2.181-1.372c-0.598-0.593-1.055-1.311-1.371-2.152C406.713,423.37,406.555,422.428,406.555,421.387z
		 M408.293,421.423c0,0.763,0.109,1.476,0.327,2.139c0.219,0.663,0.544,1.24,0.978,1.73c0.434,0.49,0.973,0.876,1.618,1.158
		c0.645,0.282,1.395,0.422,2.248,0.422c0.86,0,1.614-0.141,2.263-0.422c0.648-0.281,1.188-0.669,1.618-1.163
		c0.43-0.493,0.752-1.078,0.968-1.752c0.215-0.675,0.322-1.406,0.322-2.193c0-0.769-0.105-1.486-0.317-2.153
		c-0.212-0.666-0.533-1.244-0.963-1.734c-0.431-0.491-0.967-0.875-1.608-1.153c-0.642-0.279-1.393-0.418-2.253-0.418
		c-0.854,0-1.604,0.151-2.248,0.454c-0.646,0.303-1.188,0.708-1.628,1.217c-0.439,0.509-0.771,1.098-0.992,1.767
		S408.293,420.691,408.293,421.423z"/>
	<path fill="#A8A8A8" d="M423.995,421.387c0-0.993,0.158-1.907,0.475-2.743c0.316-0.835,0.775-1.557,1.376-2.166
		c0.602-0.608,1.335-1.083,2.2-1.426c0.866-0.342,1.852-0.513,2.956-0.513c1.047,0,1.991,0.164,2.833,0.491
		c0.841,0.327,1.557,0.79,2.147,1.389c0.591,0.6,1.044,1.322,1.359,2.166c0.314,0.845,0.472,1.788,0.472,2.829
		c0,0.999-0.156,1.915-0.468,2.748s-0.763,1.55-1.354,2.152s-1.313,1.07-2.168,1.403s-1.821,0.5-2.9,0.5s-2.046-0.161-2.902-0.481
		s-1.583-0.778-2.181-1.372c-0.598-0.593-1.055-1.311-1.371-2.152C424.153,423.37,423.995,422.428,423.995,421.387z
		 M425.733,421.423c0,0.763,0.109,1.476,0.327,2.139c0.219,0.663,0.544,1.24,0.978,1.73c0.434,0.49,0.973,0.876,1.618,1.158
		c0.645,0.282,1.395,0.422,2.248,0.422c0.86,0,1.614-0.141,2.263-0.422c0.648-0.281,1.188-0.669,1.618-1.163
		c0.43-0.493,0.752-1.078,0.968-1.752c0.215-0.675,0.322-1.406,0.322-2.193c0-0.769-0.105-1.486-0.317-2.153
		c-0.212-0.666-0.533-1.244-0.963-1.734c-0.431-0.491-0.967-0.875-1.608-1.153c-0.642-0.279-1.393-0.418-2.253-0.418
		c-0.854,0-1.604,0.151-2.248,0.454c-0.646,0.303-1.188,0.708-1.628,1.217c-0.439,0.509-0.771,1.098-0.992,1.767
		S425.733,420.691,425.733,421.423z"/>
	<path fill="#A8A8A8" d="M442.207,428.008v-13.224h2.012l7.295,10.118l0.762,1.153v-2.116v-9.155h1.68v13.224h-2.041l-7.324-10.108
		l-0.703-1.126v1.726v9.509H442.207z"/>
</g>
<path fill="#C2C2C2" d="M388.193,357.623v-2.728c0-0.724-0.64-1.363-1.364-1.363h-12.272v-15c0-0.724-0.64-1.363-1.363-1.363h-2.729
	c-0.724,0-1.363,0.639-1.363,1.363v19.091c0,0.725,0.64,1.364,1.363,1.364h16.364C387.554,358.986,388.193,358.347,388.193,357.623z
	 M396.375,353.532c0,12.017-9.802,21.818-21.818,21.818c-12.018,0-21.818-9.801-21.818-21.818s9.801-21.818,21.818-21.818
	C386.573,331.713,396.375,341.515,396.375,353.532z M407.283,353.532c0-18.068-14.658-32.727-32.727-32.727
	c-18.068,0-32.728,14.659-32.728,32.727s14.659,32.727,32.728,32.727S407.283,371.6,407.283,353.532z"/>
</svg>
