<?xml version="1.0" encoding="utf-8"?>
<!-- Generator: Adobe Illustrator 15.0.0, SVG Export Plug-In . SVG Version: 6.00 Build 0)  -->
<!DOCTYPE svg PUBLIC "-//W3C//DTD SVG 1.1//EN" "http://www.w3.org/Graphics/SVG/1.1/DTD/svg11.dtd">
<svg version="1.1" id="Layer_1" xmlns="http://www.w3.org/2000/svg" xmlns:xlink="http://www.w3.org/1999/xlink" x="0px" y="0px"
	 width="230.292px" height="229.985px" viewBox="0 0 230.292 229.985" enable-background="new 0 0 230.292 229.985"
	 xml:space="preserve">
<rect y="-0.016" fill="#E4E5E6" width="230.292" height="229.978"/>
<g>
	<path fill="#A8A8A8" d="M33.167,161.512c0-0.623,0.068-1.228,0.203-1.815c0.137-0.587,0.336-1.139,0.6-1.657
		c0.262-0.517,0.59-0.992,0.982-1.425c0.391-0.433,0.844-0.803,1.354-1.112c0.512-0.309,1.076-0.549,1.695-0.722
		c0.617-0.172,1.289-0.259,2.012-0.259c0.885,0,1.676,0.11,2.373,0.33c0.695,0.22,1.34,0.573,1.934,1.06l-0.635,1
		c-0.996-0.697-2.158-1.045-3.486-1.045c-0.6,0-1.146,0.074-1.641,0.223c-0.496,0.148-0.939,0.354-1.334,0.618
		c-0.393,0.264-0.734,0.574-1.025,0.932c-0.289,0.357-0.529,0.746-0.723,1.164c-0.191,0.418-0.334,0.859-0.43,1.322
		c-0.094,0.464-0.141,0.929-0.141,1.396c0,0.715,0.1,1.395,0.303,2.041c0.201,0.646,0.51,1.212,0.928,1.7
		c0.416,0.488,0.943,0.876,1.582,1.164c0.637,0.288,1.393,0.432,2.266,0.432c0.801,0,1.555-0.107,2.26-0.323
		c0.707-0.215,1.326-0.541,1.861-0.977l0.566,1.282c-0.605,0.454-1.322,0.794-2.148,1.021c-0.828,0.227-1.758,0.341-2.793,0.341
		c-1.074,0-2.021-0.176-2.842-0.527c-0.82-0.351-1.506-0.832-2.059-1.44c-0.551-0.608-0.967-1.317-1.244-2.126
		C33.305,163.298,33.167,162.433,33.167,161.512z"/>
	<path fill="#A8A8A8" d="M48.086,161.372c0-0.993,0.158-1.907,0.475-2.743c0.316-0.835,0.775-1.557,1.377-2.166
		c0.602-0.608,1.334-1.083,2.199-1.426c0.867-0.342,1.852-0.513,2.957-0.513c1.047,0,1.99,0.164,2.832,0.491
		c0.842,0.327,1.557,0.79,2.148,1.389c0.59,0.6,1.043,1.322,1.359,2.166c0.314,0.845,0.471,1.788,0.471,2.829
		c0,0.999-0.156,1.915-0.467,2.748c-0.312,0.833-0.764,1.55-1.354,2.152c-0.592,0.603-1.314,1.07-2.168,1.403
		c-0.855,0.333-1.822,0.5-2.9,0.5c-1.08,0-2.047-0.161-2.902-0.481c-0.857-0.321-1.584-0.778-2.182-1.372
		c-0.598-0.593-1.055-1.311-1.371-2.152C48.245,163.354,48.086,162.413,48.086,161.372z M49.825,161.408
		c0,0.763,0.109,1.476,0.328,2.139c0.219,0.663,0.543,1.24,0.977,1.73c0.434,0.49,0.973,0.876,1.619,1.158
		c0.645,0.282,1.395,0.422,2.248,0.422c0.859,0,1.613-0.141,2.262-0.422c0.648-0.281,1.188-0.669,1.619-1.163
		c0.43-0.493,0.752-1.078,0.967-1.752c0.215-0.675,0.322-1.406,0.322-2.193c0-0.769-0.105-1.486-0.316-2.153
		c-0.213-0.666-0.533-1.244-0.963-1.734c-0.432-0.491-0.967-0.875-1.609-1.153c-0.641-0.279-1.393-0.418-2.252-0.418
		c-0.854,0-1.604,0.151-2.248,0.454c-0.646,0.303-1.188,0.708-1.629,1.217c-0.439,0.509-0.77,1.098-0.992,1.767
		C49.936,159.974,49.825,160.675,49.825,161.408z"/>
	<path fill="#A8A8A8" d="M66.368,167.992v-13.224h2.344l4.635,9.445l0.818,1.853h0.02l0.83-1.88l4.664-9.418h2.256v13.224h-1.611
		v-8.482v-2.879l-0.498,1.099l-5.045,10.263h-1.23l-4.916-10.063l-0.586-1.453v3.061v8.456H66.368z"/>
	<path fill="#A8A8A8" d="M87.215,167.992v-13.224h1.68v13.224H87.215z"/>
	<path fill="#A8A8A8" d="M94.02,167.992v-13.224h2.012l7.295,10.118l0.762,1.153v-2.116v-9.155h1.68v13.224h-2.041l-7.324-10.108
		l-0.703-1.126v1.726v9.509H94.02z"/>
	<path fill="#A8A8A8" d="M110.036,161.625c0-0.647,0.072-1.273,0.219-1.875c0.146-0.602,0.361-1.167,0.645-1.693
		c0.283-0.527,0.633-1.007,1.051-1.439c0.416-0.433,0.893-0.806,1.43-1.117c0.537-0.312,1.133-0.553,1.787-0.722
		s1.365-0.254,2.135-0.254c0.469,0,0.924,0.033,1.367,0.1c0.441,0.066,0.859,0.167,1.25,0.303c0.391,0.135,0.75,0.307,1.078,0.515
		c0.33,0.208,0.617,0.45,0.865,0.727l-0.674,0.955c-0.242-0.218-0.51-0.406-0.807-0.564c-0.295-0.158-0.611-0.288-0.947-0.391
		c-0.334-0.103-0.686-0.179-1.055-0.228c-0.367-0.048-0.74-0.073-1.117-0.073c-0.906,0-1.701,0.158-2.389,0.473
		c-0.686,0.315-1.26,0.735-1.719,1.259c-0.459,0.524-0.803,1.125-1.035,1.8c-0.23,0.676-0.346,1.377-0.346,2.104
		c0,0.793,0.113,1.52,0.342,2.177c0.227,0.658,0.572,1.221,1.035,1.69c0.461,0.47,1.039,0.835,1.732,1.096
		c0.693,0.26,1.51,0.391,2.447,0.391c0.553,0,1.09-0.042,1.611-0.127c0.52-0.085,1.016-0.215,1.484-0.392v-3.876h-3.525v-1.344
		h5.205v6.139c-0.789,0.345-1.594,0.589-2.418,0.731c-0.822,0.142-1.654,0.213-2.494,0.213c-1.172,0-2.205-0.158-3.096-0.472
		c-0.893-0.315-1.639-0.76-2.242-1.335c-0.602-0.575-1.057-1.267-1.361-2.075C110.188,163.51,110.036,162.613,110.036,161.625z"/>
	<path fill="#A8A8A8" d="M133.432,166.53l0.742-1c0.213,0.242,0.463,0.447,0.752,0.614c0.287,0.167,0.59,0.303,0.91,0.409
		c0.32,0.106,0.65,0.184,0.99,0.232c0.34,0.049,0.67,0.073,0.994,0.073c0.516,0,0.988-0.047,1.418-0.141
		c0.43-0.094,0.801-0.233,1.109-0.418c0.311-0.185,0.553-0.412,0.725-0.682s0.26-0.583,0.26-0.941c0-0.4-0.115-0.741-0.344-1.022
		c-0.227-0.282-0.525-0.532-0.895-0.75c-0.367-0.218-0.791-0.415-1.266-0.591l-1.447-0.527c-0.49-0.182-0.971-0.377-1.441-0.586
		c-0.473-0.209-0.889-0.458-1.252-0.745c-0.363-0.288-0.656-0.627-0.881-1.018c-0.225-0.391-0.336-0.856-0.336-1.396
		c0-0.58,0.145-1.089,0.436-1.527s0.674-0.804,1.152-1.097c0.477-0.293,1.02-0.515,1.627-0.667c0.605-0.151,1.229-0.227,1.867-0.227
		c0.369,0,0.746,0.021,1.133,0.063s0.76,0.117,1.117,0.226c0.359,0.108,0.691,0.251,0.998,0.428
		c0.305,0.178,0.562,0.402,0.768,0.672l-0.783,1.018c-0.195-0.2-0.418-0.368-0.666-0.504c-0.25-0.136-0.518-0.246-0.799-0.327
		c-0.283-0.082-0.572-0.141-0.871-0.177c-0.299-0.037-0.594-0.055-0.887-0.055c-0.396,0-0.795,0.038-1.193,0.114
		c-0.396,0.076-0.756,0.197-1.074,0.363c-0.32,0.167-0.582,0.382-0.783,0.646c-0.203,0.264-0.303,0.583-0.303,0.959
		c0,0.388,0.113,0.723,0.342,1.004s0.527,0.532,0.9,0.75c0.371,0.218,0.791,0.418,1.262,0.6l1.457,0.555
		c0.496,0.188,0.975,0.391,1.439,0.609c0.463,0.218,0.877,0.476,1.242,0.772s0.658,0.644,0.883,1.041
		c0.223,0.397,0.336,0.865,0.336,1.404c0,0.43-0.074,0.816-0.223,1.158s-0.352,0.644-0.609,0.904
		c-0.258,0.261-0.561,0.483-0.91,0.668c-0.348,0.185-0.723,0.335-1.127,0.45c-0.402,0.115-0.822,0.2-1.262,0.254
		c-0.438,0.055-0.873,0.082-1.305,0.082c-0.471,0-0.918-0.04-1.344-0.118s-0.818-0.191-1.178-0.336
		c-0.361-0.146-0.686-0.321-0.973-0.527C133.856,167.014,133.618,166.784,133.432,166.53z"/>
	<path fill="#A8A8A8" d="M146.555,161.372c0-0.993,0.158-1.907,0.475-2.743c0.316-0.835,0.775-1.557,1.375-2.166
		c0.602-0.608,1.336-1.083,2.201-1.426c0.865-0.342,1.852-0.513,2.955-0.513c1.047,0,1.992,0.164,2.834,0.491
		c0.84,0.327,1.557,0.79,2.146,1.389c0.592,0.6,1.045,1.322,1.359,2.166c0.314,0.845,0.473,1.788,0.473,2.829
		c0,0.999-0.156,1.915-0.469,2.748c-0.311,0.833-0.762,1.55-1.354,2.152c-0.59,0.603-1.312,1.07-2.168,1.403
		c-0.854,0.333-1.82,0.5-2.9,0.5c-1.078,0-2.045-0.161-2.902-0.481c-0.855-0.321-1.582-0.778-2.18-1.372
		c-0.598-0.593-1.055-1.311-1.371-2.152C146.713,163.354,146.555,162.413,146.555,161.372z M148.293,161.408
		c0,0.763,0.109,1.476,0.326,2.139c0.219,0.663,0.545,1.24,0.979,1.73c0.434,0.49,0.973,0.876,1.617,1.158
		c0.645,0.282,1.395,0.422,2.248,0.422c0.861,0,1.615-0.141,2.264-0.422c0.648-0.281,1.188-0.669,1.617-1.163
		c0.43-0.493,0.752-1.078,0.969-1.752c0.215-0.675,0.322-1.406,0.322-2.193c0-0.769-0.105-1.486-0.318-2.153
		c-0.211-0.666-0.533-1.244-0.963-1.734c-0.43-0.491-0.967-0.875-1.607-1.153c-0.643-0.279-1.393-0.418-2.254-0.418
		c-0.854,0-1.604,0.151-2.248,0.454s-1.188,0.708-1.627,1.217c-0.439,0.509-0.771,1.098-0.992,1.767
		C148.403,159.974,148.293,160.675,148.293,161.408z"/>
	<path fill="#A8A8A8" d="M163.995,161.372c0-0.993,0.158-1.907,0.475-2.743c0.316-0.835,0.775-1.557,1.377-2.166
		c0.602-0.608,1.334-1.083,2.199-1.426c0.867-0.342,1.852-0.513,2.957-0.513c1.047,0,1.99,0.164,2.832,0.491
		c0.842,0.327,1.557,0.79,2.148,1.389c0.59,0.6,1.043,1.322,1.359,2.166c0.314,0.845,0.471,1.788,0.471,2.829
		c0,0.999-0.156,1.915-0.467,2.748c-0.312,0.833-0.764,1.55-1.354,2.152c-0.592,0.603-1.314,1.07-2.168,1.403
		c-0.855,0.333-1.822,0.5-2.9,0.5c-1.08,0-2.047-0.161-2.902-0.481c-0.857-0.321-1.584-0.778-2.182-1.372
		c-0.598-0.593-1.055-1.311-1.371-2.152C164.153,163.354,163.995,162.413,163.995,161.372z M165.733,161.408
		c0,0.763,0.109,1.476,0.328,2.139c0.219,0.663,0.543,1.24,0.977,1.73c0.434,0.49,0.973,0.876,1.619,1.158
		c0.645,0.282,1.395,0.422,2.248,0.422c0.859,0,1.613-0.141,2.262-0.422c0.648-0.281,1.188-0.669,1.619-1.163
		c0.43-0.493,0.752-1.078,0.967-1.752c0.215-0.675,0.322-1.406,0.322-2.193c0-0.769-0.105-1.486-0.316-2.153
		c-0.213-0.666-0.533-1.244-0.963-1.734c-0.432-0.491-0.967-0.875-1.609-1.153c-0.641-0.279-1.393-0.418-2.252-0.418
		c-0.854,0-1.604,0.151-2.248,0.454c-0.646,0.303-1.188,0.708-1.629,1.217c-0.439,0.509-0.77,1.098-0.992,1.767
		C165.844,159.974,165.733,160.675,165.733,161.408z"/>
	<path fill="#A8A8A8" d="M182.208,167.992v-13.224h2.012l7.295,10.118l0.762,1.153v-2.116v-9.155h1.68v13.224h-2.041l-7.324-10.108
		l-0.703-1.126v1.726v9.509H182.208z"/>
</g>
<path fill="#C2C2C2" d="M128.194,97.607v-2.728c0-0.724-0.641-1.363-1.365-1.363h-12.271v-15c0-0.724-0.641-1.363-1.363-1.363
	h-2.729c-0.725,0-1.363,0.639-1.363,1.363v19.091c0,0.725,0.639,1.364,1.363,1.364h16.363
	C127.553,98.971,128.194,98.332,128.194,97.607z M136.375,93.516c0,12.017-9.803,21.818-21.818,21.818
	c-12.018,0-21.818-9.801-21.818-21.818s9.801-21.818,21.818-21.818C126.573,71.698,136.375,81.499,136.375,93.516z M147.284,93.516
	c0-18.068-14.658-32.727-32.727-32.727c-18.068,0-32.729,14.659-32.729,32.727s14.66,32.727,32.729,32.727
	S147.284,111.584,147.284,93.516z"/>
</svg>
